<?xml version="1.0" encoding="UTF-8"?>
<svg id="Layer_1" xmlns="http://www.w3.org/2000/svg" version="1.1" viewBox="0 0 113.4 132">
  <polygon points="103.6 70.9 57.6 97.5 41.2 88.1 41.2 98.8 57.6 108.2 103.6 81.6 103.6 93.2 57.6 119.8 30.8 104.4 30.8 51.2 47.3 41.7 38.1 36.3 21.6 45.9 21.6 99.1 11.5 93.2 11.5 40.1 57.6 13.5 94 34.5 83.9 40.3 57.6 25.1 48.4 30.4 84.5 51.3 84.8 51.5 113.3 35 57.6 2.8 2.3 34.7 2.3 98.6 57.6 130.5 112.9 98.6 112.9 65.6 103.6 70.9" style="fill: #3a3a39;"/>
  <path d="M57.1,131.6L.9,99.1V34.2L57.1,1.8l57.6,33.3-30.4,17.5-.7-.4-37.5-21.7,11-6.4,26.3,15.2,8.2-4.8L57.1,14.5,12,40.6v52.1l8.2,4.8v-52.1l17.5-10.1,11.1,6.4-17.5,10.1v52.1l25.8,14.9,45.1-26.1v-9.5l-45.1,26.1-17.3-10v-12.8l17.3,10,45.1-26h0s11.1-6.4,11.1-6.4v35.1l-56.2,32.5ZM2.7,98l54.4,31.4,54.4-31.4v-30.9l-7.4,4.3h0s-47,27.1-47,27.1l-15.5-8.9v8.5l15.5,8.9,47-27.1v13.7l-47,27.1-27.7-16v-54.2l15.6-9-7.4-4.3-15.6,9v54.3l-11.9-6.8v-54.3L57.1,12.4l38.3,22.1-11.9,6.9-26.3-15.2-7.4,4.2,34.5,20,26.7-15.4L57.1,3.8,2.7,35.3v62.8Z" style="fill: #3a3a39;"/>
</svg>
