<?xml version="1.0" encoding="UTF-8"?>
<svg id="Layer_1" xmlns="http://www.w3.org/2000/svg" xmlns:xmlns="http://www.w3.org/2000/svg" xmlns:xlink="http://www.w3.org/1999/xlink" version="1.1" viewBox="0 0 276.9 71.1">
  <!-- Generator: Adobe Illustrator 29.2.1, SVG Export Plug-In . SVG Version: 2.1.0 Build 116)  -->
  <polygon points="54.9 37.9 30 52.2 21.2 47.1 21.2 52.9 30 58 54.9 43.6 54.9 49.9 30 64.2 15.6 55.9 15.6 27.2 24.5 22.1 19.6 19.2 10.6 24.4 10.6 53 5.2 49.9 5.2 21.2 30 6.9 49.7 18.2 44.2 21.4 30.1 13.2 25.1 16 44.6 27.3 44.7 27.4 60.1 18.5 30 1.1 .2 18.4 .2 52.8 30 70 59.9 52.8 59.9 35 54.9 37.9" style="fill: #3a3a39;"/>
  <path d="M29.8,70.6L-.5,53.1V18.1L29.8.6l31.1,17.9-16.4,9.5-.4-.2-20.2-11.7,5.9-3.4,14.2,8.2,4.4-2.6L29.8,7.5,5.5,21.5v28.1l4.4,2.6v-28.1l9.4-5.4,6,3.5-9.4,5.4v28.1l13.9,8,24.3-14.1v-5.1l-24.3,14.1-9.3-5.4v-6.9l9.3,5.4,24.3-14h0s6-3.5,6-3.5v18.9l-30.3,17.5ZM.5,52.5l29.3,16.9,29.3-16.9v-16.6l-4,2.3h0s-25.3,14.6-25.3,14.6l-8.3-4.8v4.6l8.3,4.8,25.3-14.6v7.4l-25.3,14.6-14.9-8.6v-29.2l8.4-4.9-4-2.3-8.4,4.9v29.3l-6.4-3.7v-29.3L29.8,6.3l20.6,11.9-6.4,3.7-14.2-8.2-4,2.3,18.6,10.8,14.4-8.3L29.8,1.7.5,18.6v33.8Z" style="fill: #3a3a39;"/>
  <path d="M97.6,28h0l-.7,4.2c-1.9-.5-3.8-.8-5.6-.8s-3.1.5-4,1.5c-.8,1-1.2,2.6-1.2,4.9s.4,3.9,1.1,5.1c.7,1.2,2,1.8,4,1.8s3.9-.3,5.8-.8h0l.7,4.2c-2.1.6-4.2.9-6.5.9h0c-6.5,0-9.8-3.6-9.8-10.9s3.3-11,9.8-11h0c2.4,0,4.6.3,6.6.9ZM108.2,29.9c1.5-1.8,3.8-2.7,6.9-2.7s5.4.9,6.9,2.7c1.5,1.8,2.2,4.5,2.2,8.2s-.7,6.4-2.2,8.2c-1.5,1.8-3.8,2.7-6.9,2.7s-5.4-.9-6.9-2.7c-1.5-1.8-2.2-4.6-2.2-8.2s.7-6.4,2.2-8.2ZM111.8,33c-.6,1-.9,2.7-.9,5.1s.3,4,.9,5.1c.6,1.1,1.7,1.6,3.3,1.6,1.6,0,2.7-.5,3.3-1.6.6-1.1.9-2.8.9-5.1s-.3-4-.9-5.1c-.6-1-1.7-1.5-3.4-1.5s-2.8.5-3.4,1.5ZM132.1,27.6h4.4v1.3c2.5-1.1,4.3-1.6,5.7-1.6h0c2.4,0,4.1.7,5.3,2.1,1.1,1.4,1.7,3.6,1.7,6.5h0v12.6h-4.5v-12.5c0-1.4-.2-2.5-.8-3.3-.5-.8-1.3-1.2-2.3-1.2s-2.7.5-4.9,1.5h0v15.4h-4.5v-20.9ZM161.4,40.5v-8.8h-3.3v-4h3.3v-5l4.5-.4v5.5h7.8v4h-7.8v8.8c0,1.6.2,2.7.5,3.4h0c.3.6,1.1,1,2.3,1s2.7-.2,4.7-.7h0l.8,4c-2.2.6-4.1.9-5.7.9h0c-2.8,0-4.7-.6-5.6-1.9-.9-1.3-1.4-3.5-1.4-6.6h0ZM182.9,38c0-3.5.8-6.2,2.4-8.1,1.6-1.8,3.8-2.8,6.6-2.8s5,.8,6.5,2.5c1.5,1.7,2.3,4.1,2.4,7.3h0l-.2,3.2h-12.8c.3,3.2,1.8,4.7,4.8,4.8h0c2,0,4.2-.4,6.4-1.1h0l.9,3.8c-.9.3-2.2.6-3.7.9-1.5.2-2.7.4-3.7.4h0c-6.4,0-9.6-3.6-9.6-10.9h0ZM192,31.3h0c-1.4,0-2.4.4-3.1,1.2-.7.8-1.1,2.1-1.2,4h8.1c0-3.5-1.3-5.2-3.9-5.2ZM214.2,37.9l-6.7-10.3h5.7l4,7,4-7h5.5l-6.4,10.3,6.8,10.6h-5.6l-4.3-7.3-4.3,7.3h-5.6l6.9-10.6ZM237.9,40.5v-8.8h-3.3v-4h3.3v-5l4.5-.4v5.5h7.8v4h-7.8v8.8c0,1.6.2,2.7.5,3.4h0c.3.6,1.1,1,2.3,1s2.7-.2,4.7-.7h0l.8,4c-2.2.6-4.1.9-5.7.9h0c-2.8,0-4.7-.6-5.6-1.9-.9-1.3-1.4-3.5-1.4-6.6h0ZM264.2,31.6h-3.4v-4h7.9v2.1c1-.5,2.3-1,3.8-1.5,1.5-.5,2.9-.8,4.2-.9h0v4.4c-1.1.1-2.5.4-4.1.9-1.6.5-2.8,1-3.8,1.5h0v10.4h6.4v4h-14.4v-4h3.4v-12.8Z" style="fill: #3a3a39;"/>
</svg>