<svg id="Layer_1" xmlns="http://www.w3.org/2000/svg" viewBox="0 0 277.24 69.99">
  <defs>
    <style>
      .cls-1{fill:#3a3a39}
    </style>
  </defs>
  <path class="cls-1" d="M55.38 37.3 30.56 51.63l-8.82-5.09-.02 5.76 8.84 5.1 24.82-14.34v6.26L30.56 63.65l-14.43-8.33V26.65l8.93-5.13-4.98-2.88-8.92 5.15v28.67l-5.43-3.14V20.65L30.56 6.32l19.63 11.33-5.43 3.14L30.6 12.6l-4.97 2.86L45.1 26.73l.13.08 15.38-8.9L30.56.55.75 17.77V52.2l29.81 17.22L60.38 52.2V34.41l-5 2.89z"/>
  <path class="cls-1" d="M30.31 69.99 0 52.48V17.49L30.31 0l31.06 17.93-16.39 9.46-.38-.22-20.2-11.71 5.94-3.44 14.18 8.17 4.42-2.57L30.31 6.87 5.98 20.93v28.1l4.42 2.57V23.5l9.42-5.43 5.98 3.46-9.42 5.43v28.1L30.3 63.1l24.32-14.06v-5.11L30.3 57.99l-9.32-5.39v-6.91l9.32 5.39 24.32-14.04v-.02l5.98-3.46v18.93L30.29 70ZM.99 51.91l29.32 16.92 29.32-16.92V35.27l-3.99 2.31v.02L30.31 52.21l-8.33-4.82v4.6l8.33 4.82 25.33-14.63v7.4L30.31 64.21 15.38 55.6V26.36l8.43-4.86-3.99-2.31-8.43 4.86v29.26l-6.42-3.69V20.36L30.31 5.73l20.63 11.91-6.42 3.71-14.18-8.17-3.97 2.29 18.6 10.76 14.39-8.31L30.31 1.13.99 18.07v33.84ZM98.11 27.43l-.66 4.22c-1.93-.53-3.81-.79-5.63-.79s-3.14.51-3.96 1.52c-.82 1.01-1.23 2.63-1.23 4.86s.35 3.94 1.06 5.13c.7 1.19 2.03 1.78 4 1.78s3.89-.26 5.76-.79l.66 4.22c-2.05.59-4.24.88-6.55.88-6.54 0-9.81-3.65-9.81-10.95S85 26.55 91.51 26.55c2.44 0 4.64.29 6.6.88Zm10.66 1.87c1.5-1.77 3.8-2.66 6.91-2.66s5.41.89 6.91 2.66c1.49 1.77 2.24 4.51 2.24 8.21s-.75 6.44-2.24 8.25c-1.5 1.8-3.8 2.7-6.91 2.7s-5.41-.9-6.91-2.7c-1.49-1.81-2.24-4.56-2.24-8.25s.75-6.44 2.24-8.21Zm3.54 3.15c-.6 1.03-.9 2.71-.9 5.06s.31 4.05.93 5.1c.61 1.05 1.73 1.58 3.34 1.58 1.61 0 2.73-.53 3.34-1.58.62-1.05.93-2.75.93-5.1s-.3-4.03-.9-5.06c-.61-1.03-1.73-1.54-3.37-1.54s-2.76.51-3.37 1.54Zm20.35-5.46h4.4l.09 1.28c2.38-1.09 4.24-1.63 5.59-1.63 2.37 0 4.13.7 5.26 2.09s1.69 3.57 1.69 6.53v12.63h-4.53v-12.5c0-1.41-.25-2.51-.75-3.3s-1.28-1.18-2.33-1.18-2.68.51-4.88 1.54v15.44h-4.54v-20.9Zm29.22 12.89v-8.84h-3.34v-4.05h3.34v-5.02l4.53-.44v5.46h7.83v4.05h-7.83v8.84c0 1.61.16 2.74.49 3.39.35.65 1.11.97 2.28.97s2.73-.24 4.67-.71l.75 3.96c-2.23.59-4.14.88-5.72.88-2.82 0-4.69-.63-5.61-1.89-.93-1.26-1.39-3.46-1.39-6.6Zm21.51-2.42c0-3.55.79-6.24 2.37-8.07 1.59-1.83 3.79-2.75 6.6-2.75s5 .83 6.54 2.48c1.54 1.66 2.34 4.09 2.39 7.29l-.17 3.25h-12.85c.27 3.17 1.85 4.75 4.75 4.75 2.03 0 4.17-.37 6.43-1.1l.92 3.83c-.94.33-2.16.61-3.65.86-1.5.25-2.73.37-3.7.37-6.42 0-9.63-3.64-9.63-10.91Zm9.15-6.73c-1.38 0-2.41.4-3.1 1.21-.69.81-1.08 2.15-1.17 4.03h8.14c0-3.49-1.29-5.24-3.87-5.24Zm22.23 6.56-6.69-10.34h5.68l4 7.04 3.96-7.04h5.54l-6.38 10.34 6.82 10.64h-5.63l-4.31-7.26-4.27 7.26h-5.63l6.91-10.64Zm23.66 2.59v-8.84h-3.34v-4.05h3.34v-5.02l4.53-.44v5.46h7.83v4.05h-7.83v8.84c0 1.61.16 2.74.49 3.39.35.65 1.11.97 2.28.97s2.73-.24 4.67-.71l.75 3.96c-2.23.59-4.14.88-5.72.88-2.82 0-4.69-.63-5.61-1.89-.93-1.26-1.39-3.46-1.39-6.6Zm26.31-8.84h-3.39v-4.05h7.92l.09 2.11c.94-.53 2.17-1.03 3.68-1.52 1.51-.48 2.91-.79 4.2-.94v4.4c-1.15.11-2.51.42-4.09.92-1.59.5-2.85 1.01-3.79 1.54v10.43h6.43v3.96h-14.44v-4.05h3.39v-12.8Z"/>
</svg>
